<svg xmlns="http://www.w3.org/2000/svg" height="24px" viewBox="0 -960 960 960" width="24px" fill="#c10000"><path d="M777.5-182.5Q821-226 821-290v-46H519v46q0 64 43.59 107.5t107.5 43.5q63.91 0 107.41-43.5ZM519-413h113v-142q-48 12-80 51t-33 91Zm190 0h113q-2-52-34-91t-79-51v142ZM506.5-126.94Q439-194.87 439-290v-110q0-94.22 67.78-162.61Q574.56-631 670.28-631T834-562.61q68 68.39 68 162.61v110q0 95.13-67.99 163.06Q766.03-59 670.01-59 574-59 506.5-126.94ZM150-230v-500 500Zm0 91q-37.05 0-64.03-26.98Q59-192.95 59-230v-501q0-37.86 26.97-64.43Q112.95-822 150-822h661q37.86 0 64.43 27.27Q902-767.46 902-730H150v500h229v91H150Z"/></svg>